<?xml version="1.0" encoding="UTF-8" standalone="no"?>
<!-- Created with Inkscape (http://www.inkscape.org/) -->

<svg
   xmlns:dc="http://purl.org/dc/elements/1.1/"
   xmlns:cc="http://creativecommons.org/ns#"
   xmlns:rdf="http://www.w3.org/1999/02/22-rdf-syntax-ns#"
   xmlns:svg="http://www.w3.org/2000/svg"
   xmlns="http://www.w3.org/2000/svg"
   xmlns:sodipodi="http://sodipodi.sourceforge.net/DTD/sodipodi-0.dtd"
   xmlns:inkscape="http://www.inkscape.org/namespaces/inkscape"
   width="576.2597"
   height="309.59247"
   viewBox="0 0 152.46872 81.913005"
   version="1.1"
   id="svg8"
   inkscape:version="0.92.3 (2405546, 2018-03-11)"
   sodipodi:docname="9002-lcd.svg">
  <defs
     id="defs2" />
  <sodipodi:namedview
     id="base"
     pagecolor="#ffffff"
     bordercolor="#666666"
     borderopacity="1.0"
     inkscape:pageopacity="0.0"
     inkscape:pageshadow="2"
     inkscape:zoom="1.149477"
     inkscape:cx="256.11366"
     inkscape:cy="51.907561"
     inkscape:document-units="px"
     inkscape:current-layer="layer1"
     showgrid="false"
     inkscape:window-width="1530"
     inkscape:window-height="837"
     inkscape:window-x="1193"
     inkscape:window-y="1080"
     inkscape:window-maximized="1"
     units="px"
     fit-margin-top="0"
     fit-margin-left="0"
     fit-margin-right="0"
     fit-margin-bottom="0" />
  <metadata
     id="metadata5">
    <rdf:RDF>
      <cc:Work
         rdf:about="">
        <dc:format>image/svg+xml</dc:format>
        <dc:type
           rdf:resource="http://purl.org/dc/dcmitype/StillImage" />
        <dc:title></dc:title>
      </cc:Work>
    </rdf:RDF>
  </metadata>
  <g
     inkscape:label="Layer 1"
     inkscape:groupmode="layer"
     id="layer1"
     transform="translate(-24.854988,-126.40451)">
    <path
       style="clip-rule:evenodd;fill-rule:evenodd;stroke-width:0.41784841"
       d="m 167.79613,136.148 v 5.23999 h 0.97824 v -2.35697 h 1.83038 v 2.35697 h 0.9772 V 136.148 h -0.9772 v 1.98075 h -1.83038 V 136.148 Z m 4.46278,1.37924 v 0.82734 h 1.60507 l -1.70532,2.23087 v 0.80254 h 2.93367 v -0.82734 h -1.78025 l 1.7048,-2.20607 v -0.82734 z"
       id="unit.sub.hz"
       inkscape:label=""
       inkscape:connector-curvature="0" />
    <path
       style="clip-rule:evenodd;fill-rule:evenodd;stroke-width:0.41784844"
       d="m 109.21483,130.53304 c -2.84597,-0.64641 -0.80603,-4.19102 1.45411,-2.55723 v 0.0251 c 0.36186,0.27035 0.49348,0.74669 0.50183,1.17833 h -0.85241 c -0.011,-0.51646 -0.41241,-0.75798 -0.87747,-0.75212 -0.46884,4.1e-4 -0.81565,0.20432 -0.75256,0.72705 0.24779,0.75672 2.38048,0.26116 2.60738,1.72989 0.33385,2.42144 -3.61522,2.40639 -3.5095,0.20057 h 0.85198 c 0.0305,0.81731 0.80813,0.8942 1.42946,0.72706 l 0.12539,-0.0752 0.10029,-0.0752 0.0998,-0.12535 0.0502,-0.12535 v -0.30085 l -0.0752,-0.12536 -0.0749,-0.10028 -0.0251,-0.0251 -0.1254,-0.0752 -0.12539,-0.0501 -0.12571,-0.0251 -0.12539,-0.0501 -0.0998,-0.0251 z"
       id="unit.sub.s"
       inkscape:label=""
       inkscape:connector-curvature="0" />
    <path
       style="clip-rule:evenodd;fill-rule:evenodd;stroke-width:0.41784844"
       d="m 171.84496,192.64516 0.0251,0.15043 v 2.65752 h -0.82776 v -2.53217 l -0.0246,-0.15042 -0.0254,-0.0752 -0.0749,-0.12535 -0.10075,-0.0752 -0.12492,-0.0501 h -0.22563 l -0.1254,0.0752 -0.10076,0.0752 -0.0752,0.12536 -0.0251,0.0501 -0.0251,0.12537 -0.0246,0.15042 v 2.40681 h -0.80227 v -2.53216 l -0.0251,-0.12535 -0.0251,-0.0752 -0.0756,-0.12536 -0.10028,-0.10029 -0.12539,-0.0501 h -0.0998 l -0.1254,0.0251 -0.12539,0.0251 -0.1254,0.10029 -0.0756,0.10028 v 0.0251 l -0.0251,0.12535 -0.0251,0.15042 v 2.45695 h -0.80185 v -3.76063 h 0.75171 v 0.55156 c 0.20266,-0.38359 0.40406,-0.65227 0.87748,-0.65185 0.51187,-0.0147 0.65184,0.23776 0.82776,0.65185 0.13708,-0.43916 0.63053,-0.72372 1.07805,-0.62678 0.43915,0.0313 0.796,0.62218 0.77719,1.02791 z"
       id="unit.sub.milli"
       inkscape:label=""
       inkscape:connector-curvature="0" />
    <path
       style="clip-rule:evenodd;fill-rule:evenodd;stroke-width:0.41784841"
       d="m 174.07594,190.33853 -1.50379,5.11442 h 0.92708 l 0.27595,-1.05265 h 1.57975 l 0.27595,1.05265 h 0.95188 l -1.50379,-5.11442 z m 0.50126,1.25367 0.5271,2.00556 h -1.07849 z"
       id="unit.sub.a"
       inkscape:label=""
       inkscape:connector-curvature="0" />
    <path
       style="clip-rule:evenodd;fill-rule:evenodd;stroke-width:0.41784844"
       d="m 115.85908,131.33531 -0.0752,0.12535 -0.0752,0.10028 -0.10028,0.10028 -0.0756,0.10029 h 0.75253 v 0.82734 h -1.93045 v -0.77719 c 1.32708,-0.5595 1.58865,-3.35574 -0.15082,-3.50993 -1.90706,-0.0873 -1.67139,2.89945 -0.3255,3.48486 v 0.80227 h -1.93045 v -0.82734 h 0.80227 c -1.26525,-1.13196 -0.94183,-3.97333 0.92761,-4.26206 2.26809,-0.3652 3.06033,1.95511 2.28146,3.7105 h -0.0251 z"
       id="unit.sub.ohm"
       inkscape:label=""
       inkscape:connector-curvature="0" />
    <path
       style="clip-rule:evenodd;fill-rule:evenodd;stroke-width:0.41784844"
       d="m 161.52859,136.14811 h 1.02833 l -1.63003,5.23982 h -0.92721 l -1.57988,-5.23982 h 1.05339 l 1.02791,3.98627 z"
       id="unit.sub.v"
       inkscape:label=""
       inkscape:connector-curvature="0" />
    <path
       style="clip-rule:evenodd;fill-rule:evenodd;stroke-width:0.41784841"
       d="m 163.52103,190.33853 v 5.11442 h 2.00607 l 0.15038,-0.0248 h 0.12506 l 0.12557,-0.0501 0.12558,-0.0253 0.12557,-0.0501 c 0.27828,-0.15419 0.46343,-0.44003 0.57619,-0.72709 0.22563,-0.61424 0.16214,-1.5829 -0.52606,-1.87999 h 0.0248 l 0.0997,-0.0754 0.20051,-0.20051 0.0501,-0.10025 0.0501,-0.12557 c 0.1266,-0.21311 0.058,-0.5509 0.076,-0.80202 -0.0928,-0.60797 -0.4782,-1.02937 -1.1033,-1.05317 z m -1.67897,0.10077 v 1.75493 l -0.0754,-0.12557 -0.0749,-0.10025 -0.10077,-0.10026 -0.25115,-0.15037 -0.12454,-0.0253 -0.15089,-0.0248 -0.12506,-0.0253 c -0.36396,0.0217 -0.74331,0.15446 -0.97772,0.45113 v 5.2e-4 c -0.55991,0.67733 -0.6232,1.93223 -0.22582,2.70733 0.42912,0.93514 1.69221,1.07827 2.15645,0.12557 v 0.52658 h 0.85163 v -5.01416 z m 2.48202,0.7767 h 0.9772 l 0.12557,0.0253 0.15038,0.0248 0.12557,0.0253 0.0997,0.10026 0.0755,0.10025 0.0253,0.15038 c 0.10321,0.33678 -0.096,0.68296 -0.45114,0.70176 h -0.12557 -1.00252 z m -3.33055,1.28054 c 0.15883,-0.023 0.34952,0.0255 0.57258,0.17363 0.23435,0.33595 0.23095,0.29112 0.30075,0.70228 -0.0163,0.24319 0.0482,0.62259 -0.0754,0.82734 -0.13288,0.56033 -0.74592,0.73949 -1.1529,0.35089 -0.42675,-0.51027 -0.33323,-1.9544 0.35502,-2.05414 z m 3.33003,0.70021 h 1.15342 l 0.15038,0.0248 h 5.3e-4 c 0.42498,0.20182 0.40846,0.52562 0.35036,0.92759 l -0.0501,0.12558 -0.0754,0.12557 -0.10025,0.0749 h -0.0248 l -0.12505,0.0501 -0.15038,0.0253 -0.12557,0.0248 h -1.00304 z"
       id="unit.sub.db"
       inkscape:label=""
       inkscape:connector-curvature="0" />
    <path
       style="clip-rule:evenodd;fill-rule:evenodd;stroke-width:0.41784844"
       d="m 101.21724,127.7251 v 0.12536 l -0.20056,0.87748 -0.0251,0.0752 -0.0748,0.12537 c -0.12413,0.22271 -0.34013,0.29123 -0.57705,0.32592 -0.465067,-0.008 -0.700307,-0.35434 -0.776777,-0.7772 0.0815,-0.85701 0.38608,-1.86695 1.453677,-1.27862 v 0.0251 l 0.10029,0.10029 0.0502,0.12534 0.0254,0.15043 z"
       id="path6283"
       inkscape:connector-curvature="0" />
    <path
       style="clip-rule:evenodd;fill-rule:evenodd;stroke-width:0.41784844"
       d="m 103.2484,131.46066 v 0.10029 l -0.17548,0.90255 -0.0254,0.0752 -0.0752,0.12535 c -0.13156,0.15377 -0.37063,0.31004 -0.57622,0.32592 -0.48636,-0.0497 -0.84195,-0.42663 -0.77761,-0.92762 l 0.0502,-0.25071 0.0251,-0.15043 0.0251,-0.12535 c 0.11118,-0.26491 0.0213,-0.35475 0.2762,-0.57663 0.21645,-0.15669 0.28539,-0.22647 0.55156,-0.20056 h 0.12539 l 0.1254,0.0501 0.15003,0.0501 0.10028,0.0752 h 0.0254 l 0.0748,0.12534 0.10076,0.25071 z"
       id="path6279"
       inkscape:connector-curvature="0" />
    <g
       id="unit.sub.percent"
       inkscape:label=""
       transform="translate(-59.183135,-5.5300232)">
      <path
         inkscape:connector-curvature="0"
         id="path6281"
         d="m 159.77363,133.15483 -0.1254,-0.0501 -0.10028,0.0251 -0.0749,0.10028 -0.17549,0.80227 v 0.0501 l 0.0752,0.10028 0.12539,0.0501 0.0998,-0.0251 0.0752,-0.10028 0.17592,-0.80227 v -0.0501 z"
         style="clip-rule:evenodd;fill-rule:evenodd;stroke-width:0.41784844" />
      <path
         inkscape:connector-curvature="0"
         id="path6277"
         d="m 161.87999,137.04077 v -0.0501 l -0.0752,-0.12534 -0.12539,-0.0501 -0.10029,0.0501 -0.0756,0.10028 -0.17508,0.7772 v 0.0251 l 0.0251,0.0251 0.0497,0.12536 0.1505,0.0501 0.0756,-0.0251 0.10028,-0.12534 z"
         style="clip-rule:evenodd;fill-rule:evenodd;stroke-width:0.41784844" />
      <path
         inkscape:connector-curvature="0"
         inkscape:label=""
         id="path6276"
         d="m 162.58198,132.75365 h -0.72705 l -3.38499,5.86659 h 0.72705 z"
         style="clip-rule:evenodd;fill-rule:evenodd;stroke-width:0.41784844" />
    </g>
    <path
       style="clip-rule:evenodd;fill-rule:evenodd;stroke-width:0.41784844"
       d="m 164.08623,136.14807 h 0.87749 v 2.83301 l 1.15327,-1.47918 h 1.15326 l -1.25355,1.45411 1.2782,2.43188 h -1.10271 l -0.85241,-1.65468 -0.37606,0.4262 v 1.22848 h -0.87749 z"
       id="unit.sub.kilo"
       inkscape:label=""
       inkscape:connector-curvature="0" />
    <path
       style="clip-rule:evenodd;fill-rule:evenodd;stroke-width:0.41784844"
       d="m 105.30428,128.95353 c 2.34998,-0.91509 1.82767,2.45194 1.78004,3.63528 h -0.92763 v -2.38173 l -0.0254,-0.15043 -0.0251,-0.12536 -0.0251,-0.0501 c -0.17465,-0.27536 -0.32675,-0.28121 -0.62676,-0.27578 -0.38108,0.15418 -0.2503,0.0606 -0.47636,0.40113 l -0.0502,0.15043 -0.0246,0.12536 v 0.15043 l -0.0254,0.12534 v 2.03075 h -0.87707 v -3.68542 h 0.852 v 0.52649 c 0.0678,-0.14875 0.29793,-0.41659 0.45169,-0.47635 z"
       id="unit.sub.nano"
       inkscape:label=""
       inkscape:connector-curvature="0" />
    <path
       style="clip-rule:evenodd;fill-rule:evenodd;stroke-width:0.41784844"
       d="m 153.47966,127.84234 c 0.76299,1.10689 0.70199,2.98971 -0.37648,3.88599 h 0.92804 v 0.9527 h -2.3316 v -0.90255 c 1.66387,-0.63973 1.86444,-3.9658 -0.30126,-3.98629 -1.00243,-0.0276 -1.58658,0.80437 -1.57905,1.7299 -0.0126,0.93307 0.44292,1.84481 1.27861,2.25639 v 0.90255 h -2.35708 v -0.9527 h 1.00325 c -1.17959,-0.97567 -1.21051,-2.88106 -0.30126,-4.03642 0.88207,-1.18627 3.24375,-1.09225 4.03683,0.15035 z"
       id="unit.main.ohm"
       inkscape:label=""
       inkscape:connector-curvature="0" />
    <path
       style="clip-rule:evenodd;fill-rule:evenodd;stroke-width:0.41784844"
       d="m 147.38742,128.44405 -1.45411,1.52932 1.50384,2.55723 h -1.30327 l -0.97776,-1.75496 -0.42621,0.45128 v 1.30368 h -1.05339 v -5.5156 h 1.05339 v 2.98345 l 1.32876,-1.5544 z"
       id="unit.main.kilo"
       inkscape:label=""
       inkscape:connector-curvature="0" />
    <path
       style="clip-rule:evenodd;fill-rule:evenodd;stroke-width:0.41784841"
       d="m 128.16411,126.40456 c -1.69922,0.0154 -1.93166,2.45313 -0.10646,2.68872 1.84731,0.117 2.11022,-2.4644 0.27544,-2.68252 -0.0579,-0.005 -0.11417,-0.007 -0.16898,-0.006 z m 2.30012,0.63304 v 5.41517 h 1.12809 v -2.25619 h 2.43189 v -0.95292 h -2.43189 v -1.25315 h 2.78329 v -0.95291 z m -2.281,0.25063 h 0.0248 l 0.15038,0.0253 0.12505,0.0749 0.0749,0.10076 0.076,0.12506 0.0243,0.12558 v 0.0501 l -0.10026,0.25063 -0.10025,0.0749 -0.12454,0.0755 c -0.26325,0.0284 -0.48043,-0.053 -0.60203,-0.30076 l -0.0248,-0.15037 v -0.0253 l 0.0501,-0.12558 0.0744,-0.12505 0.10077,-0.10026 0.12557,-0.0501 z"
       id="unit.main.fahrenheit"
       inkscape:label=""
       inkscape:connector-curvature="0" />
    <path
       style="clip-rule:evenodd;fill-rule:evenodd;stroke-width:0.41784844"
       d="m 170.90232,201.08227 h 1.17792 l -1.85484,5.5156 h -1.10312 l -1.85524,-5.5156 h 1.22848 l 1.2034,4.18684 z"
       id="unit.main.v"
       inkscape:label=""
       inkscape:connector-curvature="0" />
    <path
       style="clip-rule:evenodd;fill-rule:evenodd;stroke-width:0.41784844"
       d="m 171.38168,132.54946 h -0.92761 v -5.26489 h 3.58472 v 0.70198 h -2.65711 v 1.5544 h 2.30653 v 0.67692 h -2.30653 z"
       id="unit.main.f"
       inkscape:label=""
       inkscape:connector-curvature="0" />
    <path
       style="clip-rule:evenodd;fill-rule:evenodd;stroke-width:0.41784841"
       d="m 155.87859,201.41892 -2.05621,5.23998 h 0.97772 l 0.65216,-1.62987 h 1.75545 l 0.62631,1.62987 h 0.97824 l -2.05621,-5.23998 z m 0.45113,1.35392 0.60203,1.55442 h -1.20354 z"
       id="unit.main.a1"
       inkscape:label=""
       inkscape:connector-curvature="0" />
    <path
       style="clip-rule:evenodd;fill-rule:evenodd;stroke-width:0.41784841"
       d="m 171.58195,144.03384 -2.05569,5.26531 h 0.97772 l 0.65164,-1.65468 h 1.72961 l 0.65215,1.65468 h 0.97824 l -2.05621,-5.26531 z m 0.45165,1.35392 0.60151,1.55443 h -1.22835 z"
       id="unit.main.a2"
       inkscape:label=""
       inkscape:connector-curvature="0" />
    <path
       style="clip-rule:evenodd;fill-rule:evenodd;stroke-width:0.41784841"
       d="m 118.6882,126.40456 c -1.69432,0.0128 -1.91012,2.45759 -0.108,2.68872 1.85192,0.11283 2.11709,-2.46482 0.27646,-2.68252 -0.0577,-0.005 -0.1138,-0.007 -0.16846,-0.006 z m 4.19044,0.64027 c -0.15811,0.003 -0.30744,0.0171 -0.43718,0.0429 -2.08631,0.26366 -2.5268,3.12981 -1.40405,4.56303 1.16413,1.38183 3.9478,1.02231 4.23695,-1.10329 h -1.1281 c -0.41616,1.60955 -2.65958,1.21577 -2.53214,-0.80202 0.0238,-0.6719 0.19928,-1.4754 0.92759,-1.70481 0.66939,-0.26366 1.44915,0.11073 1.60455,0.82735 h 1.15291 c -0.10906,-0.65603 -0.42713,-1.2455 -1.05265,-1.52963 -0.34066,-0.20686 -0.89355,-0.30216 -1.36788,-0.29352 z m -4.10414,0.24495 c 0.42432,0.0393 0.61983,0.68735 0.0816,0.90123 h -0.1757 l -0.12506,-0.0253 -0.12557,-0.0501 -0.0997,-0.10026 -0.0501,-0.12505 -0.0253,-0.15038 v -0.0253 l 0.0253,-0.12558 0.0749,-0.12505 0.10025,-0.10025 0.12506,-0.0501 c 0.0685,-0.0222 0.13368,-0.0294 0.1943,-0.0238 z"
       id="unit.main.celcius"
       inkscape:label=""
       inkscape:connector-curvature="0" />
    <path
       style="clip-rule:evenodd;fill-rule:evenodd;stroke-width:0.41784844"
       d="m 138.23612,128.46912 v 4.06148 h -1.05255 v -5.5156 h 1.65468 l 1.00284,4.33728 1.00241,-4.33728 h 1.65468 v 5.5156 h -1.07804 c 0,-1.54604 0,-3.09208 0,-4.63812 l -1.02749,4.63812 h -1.1282 l -1.02833,-4.63812 c 0,0.19221 0,0.38442 0,0.57664 z"
       id="unit.main.mega"
       inkscape:label=""
       inkscape:connector-curvature="0" />
    <path
       style="clip-rule:evenodd;fill-rule:evenodd;stroke-width:0.41784844"
       d="m 165.53715,204.14092 c -0.0952,-0.45462 -0.50518,-0.55866 -0.87749,-0.4262 l -0.12539,0.0501 -0.10076,0.0752 -0.0752,0.12534 -0.0251,0.0501 -0.0498,0.12537 -0.0251,0.12534 v 2.43188 h -1.07847 v -2.40681 l -0.0251,-0.12536 -0.0251,-0.15042 -0.0251,-0.0752 -0.0749,-0.10029 -0.12539,-0.10028 -0.12539,-0.0501 -0.1254,-0.0251 h -0.0757 l -0.15034,0.0251 -0.12492,0.0251 -0.1254,0.0501 -0.12571,0.0752 -0.0748,0.10028 h -0.0254 l -0.0501,0.12535 -0.0251,0.15043 v 2.48201 H 160.798 v -3.78571 h 1.0279 v 0.55156 l 0.0752,-0.10028 0.10029,-0.12535 0.0756,-0.10028 0.1254,-0.0752 v -0.0251 c 0.52106,-0.25949 0.53984,-0.19305 1.07806,-0.20057 l 0.12539,0.0251 0.15035,0.0501 0.12492,0.0501 0.0752,0.0501 0.20098,0.20057 0.0752,0.10028 0.0752,0.12535 v 0.0251 c 0.38651,-0.57498 1.00327,-0.72541 1.65427,-0.57666 0.25531,0.0272 0.64766,0.3535 0.75254,0.6017 l 0.0501,0.12535 0.0251,0.12535 0.0251,0.15042 0.0251,0.12535 v 2.68259 h -1.10311 z"
       id="unit.main.milli"
       inkscape:label=""
       inkscape:connector-curvature="0" />
    <path
       style="clip-rule:evenodd;fill-rule:evenodd;stroke-width:0.41784844"
       d="m 162.54343,129.98691 v 2.33159 h -0.92763 v -2.23131 l -0.0251,-0.1505 -0.0502,-0.12539 -0.0752,-0.10029 -0.10028,-0.12539 c -0.21644,-0.20809 -0.58624,-0.31047 -0.8779,-0.30085 -1.77,0.0873 -0.95186,1.68393 -1.12777,3.03357 h -0.92762 v -3.58513 h 0.92762 v 0.40113 h 0.0246 l 0.10076,-0.0752 0.12539,-0.0752 0.37608,-0.15034 0.15034,-0.0251 c 0.47134,-0.10787 0.45504,-0.0769 0.90213,-0.0501 0.66438,0.11244 1.3789,0.51896 1.50468,1.22846 z"
       id="unit.main.nano"
       inkscape:label=""
       inkscape:connector-curvature="0" />
    <path
       style="clip-rule:evenodd;fill-rule:evenodd;stroke-width:0.41784844"
       d="m 168.85447,129.28757 v 3.68541 h -0.92721 v -0.22563 c -0.63303,0.32175 -1.63838,0.35392 -2.25638,0 v 1.05298 h -0.92804 v -4.51276 h 0.92804 v 2.20624 l 0.0246,0.1505 0.0501,0.1254 0.0752,0.12539 0.10076,0.10028 c 0.21435,0.18678 0.59376,0.31799 0.87749,0.30085 1.77878,-0.0632 0.92261,-1.67976 1.12818,-3.00851 z"
       id="unit.main.micro"
       inkscape:label=""
       inkscape:connector-curvature="0" />
    <path
       inkscape:connector-curvature="0"
       style="clip-rule:evenodd;fill-rule:evenodd;stroke-width:0.41784844"
       d="m 146.43137,135.27003 c 0.25614,-0.28162 0.44792,-0.4542 0.62676,-0.80226 h 0.5265 v 6.66886 h -0.82776 v -5.18968 c -0.47509,0.42955 -1.05758,0.74377 -1.65427,0.97776 v -0.77719 c 0.61424,-0.30169 0.80979,-0.45128 1.32877,-0.87749 z"
       id="path6229" />
    <g
       id="unit.main.milliseconds"
       inkscape:label=""
       transform="translate(-9.2060816,-12.551227)">
      <path
         id="path6231"
         d="m 161.65402,149.90215 c 0.39612,-0.19179 0.93682,-0.0364 1.15326,0.35099 0.13961,0.1801 0.15761,0.40866 0.20099,0.62678 0,0.93598 0,1.87196 0,2.80794 H 162.206 v -2.40681 l -0.0254,-0.15043 -0.0251,-0.12536 -0.0251,-0.0752 c -0.064,-0.26826 -0.2925,-0.31673 -0.5265,-0.25071 l -0.1254,0.0501 -0.0998,0.10029 -0.0502,0.12534 -0.0251,0.0501 -0.0502,0.12537 v 0.12534 l -0.0251,0.15043 v 2.28145 h -0.80227 v -2.53216 l -0.0254,-0.12535 c -0.0276,-0.20224 -0.18135,-0.38316 -0.40071,-0.35099 h -0.15035 l -0.12571,0.0501 -0.10028,0.0752 -0.0752,0.12535 -0.0498,0.15042 -0.0251,0.12536 v 2.48202 h -0.80227 v -3.7857 h 0.77721 v 0.55156 c 0.2766,-0.82818 1.4679,-0.87498 1.67974,0 0.20935,-0.27829 0.1851,-0.3698 0.52607,-0.55156 z"
         style="clip-rule:evenodd;fill-rule:evenodd;stroke-width:0.41784844"
         inkscape:connector-curvature="0" />
      <path
         id="path6227"
         d="m 166.61806,150.95513 h -0.67691 c 0.0368,-0.2716 -0.29501,-0.39445 -0.50101,-0.45128 -0.39486,-0.0714 -0.55029,-0.0911 -0.92761,0.0752 -0.65812,0.24653 -0.23901,0.82191 0.37605,0.82734 0.71871,0.0957 0.85158,0.0109 1.45411,0.50142 0.32551,0.33929 0.38568,0.91175 0.0251,1.25355 -0.67693,0.85282 -2.69095,0.65644 -2.85809,-0.55156 h 0.67691 c 0.1404,0.50058 1.13112,0.50852 1.52933,0.27578 0.64515,-0.44877 -0.21353,-0.8591 -0.65184,-0.80227 -1.00535,0.0318 -2.1582,-0.94727 -1.17834,-1.85525 0.7492,-0.73249 2.66838,-0.46507 2.73231,0.72706 z"
         style="clip-rule:evenodd;fill-rule:evenodd;stroke-width:0.41784844"
         inkscape:connector-curvature="0" />
    </g>
    <path
       style="clip-rule:evenodd;fill-rule:evenodd;stroke-width:0.41784841"
       d="m 26.308131,127.09971 -0.150379,0.0248 H 26.03321 c -0.41325,0.0894 -0.793776,0.3258 -1.003554,0.70228 l -0.150378,0.37569 -0.02429,0.15038 v 4.6886 c 0.03177,0.4308 0.299302,0.79386 0.651124,1.02785 0.189298,0.0769 0.437396,0.2306 0.652155,0.2005 l 0.125058,0.0253 h 19.380211 l 0.125573,-0.0253 c 0.328422,0.0163 0.88006,-0.27126 1.05265,-0.57671 l 0.150895,-0.25063 0.05013,-0.12557 0.04961,-0.25064 v -4.7134 c -0.01588,-0.36604 -0.320805,-0.85378 -0.652156,-1.00252 l -0.100253,-0.0754 -0.125574,-0.0501 -0.14986,-0.0501 -0.125574,-0.0248 -0.125574,-0.0253 -0.150378,-0.0248 z m 7.092071,1.2268 c 1.368865,-0.0537 2.7578,1.19798 2.360581,3.06028 -0.917591,3.37705 -5.388837,1.83512 -4.413168,-1.40405 0.417116,-1.12176 1.23127,-1.62402 2.052587,-1.65623 z m -7.091555,0.002 h 0.852662 v 2.08101 h 2.306317 v -2.08101 h 0.877467 v 4.96404 h -0.877467 v -2.05569 h -2.306317 v 2.05569 h -0.852662 z m 10.379728,0 h 0.876948 v 4.1367 h 2.883546 v 0.82734 h -3.760494 z m 4.637442,0 h 2.457215 c 1.756179,0.25657 2.049229,1.59597 1.879989,3.18379 -0.40698,2.23298 -2.568044,1.82325 -4.337204,1.78025 z m -7.793839,0.39068 c -0.945679,0.0165 -1.826651,1.51264 -1.331701,2.94349 1.088919,2.65417 3.26426,0.50665 2.683039,-1.52911 -0.342569,-1.02541 -0.855982,-1.42301 -1.351338,-1.41438 z m 9.404077,0.39739 c -0.271459,0.008 -0.534445,0.0299 -0.757576,0.0393 v 3.30936 c 2.150261,0.1613 2.848272,-0.0519 2.607593,-2.33164 -0.142274,-0.94047 -1.03564,-1.04118 -1.850017,-1.01699 z"
       id="icon.hold"
       inkscape:label=""
       inkscape:connector-curvature="0" />
    <path
       style="clip-rule:evenodd;fill-rule:evenodd;stroke-width:0.41784841"
       d="m 168.47875,181.47135 v 5.54075 h 1.1281 v -2.48202 h 2.13062 v 2.48202 h 1.15342 v -5.54075 h -1.15342 v 2.10633 h -2.13062 v -2.10633 z m 5.03897,1.65468 v 0.82734 h 1.88051 l -2.00556,2.25671 v 0.80202 h 3.43493 v -0.85215 h -2.08153 l 2.00608,-2.18126 v -0.85266 z"
       id="unit.main.hz"
       inkscape:label=""
       inkscape:connector-curvature="0" />
    <path
       style="clip-rule:evenodd;fill-rule:evenodd;stroke-width:0.52272403"
       d="m 132.07602,195.05484 h -3.16322 l 0.90825,-5.90473 h 3.1319 z"
       id="main.4.h"
       inkscape:label=""
       inkscape:connector-curvature="0" />
    <path
       style="clip-rule:evenodd;fill-rule:evenodd;stroke-width:0.52272403"
       d="m 49.236842,147.63345 c 0.345558,-0.42557 0.70207,-0.73756 1.127476,-1.06786 l 1.973093,7.4437 -1.628576,12.37477 -3.570364,3.76896 -2.067042,-2.26138 1.597247,-15.23289 v -0.18845 l 0.06261,-0.15704 0.03136,-0.18844 0.03137,-0.15704 0.06261,-0.15702 0.03136,-0.15706 0.06261,-0.18844 c 0.175976,-0.48788 0.413423,-0.94381 0.626377,-1.41336 0.477612,-0.85011 1.006377,-1.69237 1.659893,-2.41841 z"
       id="main.1.b"
       inkscape:label=""
       inkscape:connector-curvature="0" />
    <path
       style="clip-rule:evenodd;fill-rule:evenodd;stroke-width:0.41784841"
       d="m 121.30774,135.74472 -0.15038,0.0248 c -0.4166,0.0113 -0.80119,0.25121 -1.05316,0.57671 l -0.0749,0.12557 -0.15038,0.37569 -0.0253,0.1509 v 4.68808 c 0.0853,0.48345 0.24894,0.74538 0.65216,1.02785 0.18887,0.0769 0.43645,0.2306 0.65164,0.2005 l 0.12557,0.0253 h 8.67389 l 0.15089,-0.0253 c 0.42328,-0.005 0.78691,-0.26082 1.05265,-0.57671 l 0.0755,-0.12506 0.15038,-0.3762 0.0253,-0.12557 v -4.71289 c -0.0639,-0.4028 -0.27276,-0.81376 -0.65216,-1.00304 -0.1943,-0.12874 -0.42141,-0.20073 -0.65164,-0.22583 l -0.12557,-0.0248 z m 1.85519,1.22835 h 0.87695 l 2.18177,4.96404 h -0.87798 l -0.42633,-0.95291 h -2.63188 l -0.40101,0.95291 h -0.87746 z m 0.45113,1.00304 -0.9524,2.18075 h 1.9048 z m 3.18379,0.9276 h 3.45973 v 0.82733 h -3.45973 z"
       id="icon.a-"
       inkscape:label=""
       inkscape:connector-curvature="0" />
    <path
       style="clip-rule:evenodd;fill-rule:evenodd;stroke-width:0.41784841"
       d="m 114.42964,137.54893 c -0.14068,-0.004 -0.28726,0.005 -0.43874,0.0294 -1.16078,0.33511 -1.4983,1.52401 -1.5043,2.60708 -0.10154,3.1794 3.33082,3.50311 3.68557,0.75241 h -0.87747 c -0.0288,0.63931 -0.60351,1.1545 -1.20354,0.87746 -0.62228,-0.24569 -0.69077,-1.03001 -0.70177,-1.60455 -0.007,-0.52649 0.0983,-1.3835 0.62684,-1.65468 0.61421,-0.32509 1.19997,0.0946 1.27847,0.75189 h 0.87747 c -0.0618,-1.03944 -0.75775,-1.73086 -1.74253,-1.75906 z m -4.75113,0.004 -1.50379,5.23999 h 0.90227 l 0.30076,-1.07797 h 1.52962 l 0.27595,1.07797 h 0.9524 l -1.47898,-5.23999 z m 0.47645,1.20355 0.52659,2.05568 h -1.07797 z"
       id="icon.ac"
       inkscape:label=""
       inkscape:connector-curvature="0" />
    <path
       style="clip-rule:evenodd;fill-rule:evenodd;stroke-width:0.41784841"
       d="m 140.63268,139.53001 c -0.53464,0.009 -1.06909,0.23893 -1.35185,0.68574 -0.55574,0.69488 -0.63766,1.89027 -0.47594,2.73265 0.32258,2.43644 3.34562,2.45847 3.61012,-0.0248 h -0.87747 c -0.041,0.64766 -0.59557,1.13778 -1.20354,0.87746 -0.61468,-0.27118 -0.69377,-1.01371 -0.70177,-1.60455 -0.005,-0.56117 0.10077,-1.35909 0.62683,-1.68 0.6765,-0.2645 1.16398,0.0598 1.27848,0.77721 h 0.87747 c 0.048,-0.41075 -0.32541,-1.14305 -0.65216,-1.37872 -0.29853,-0.26416 -0.71433,-0.39168 -1.13017,-0.38499 z m -5.91488,0.009 v 5.23999 c 1.35424,-0.16965 2.40737,0.47233 3.1595,-0.85266 h -5.3e-4 c 0.39901,-0.84781 0.46029,-1.83871 0.30024,-2.75797 -0.0522,-0.38986 -0.26641,-0.91931 -0.55139,-1.20303 l -0.10024,-0.10025 -0.12557,-0.0754 -0.10025,-0.0749 -0.12558,-0.0755 -0.0997,-0.0248 -0.15038,-0.0501 h -0.12557 l -0.14987,-0.0253 z m 1.35392,0.88212 c 1.04181,-0.004 1.23187,0.32276 1.30432,1.54977 5.3e-4,0.6088 -0.0849,1.80691 -0.87799,1.88051 l -0.12453,0.0248 h -0.80254 v -3.43441 c 0.18573,-0.0125 0.35192,-0.0201 0.50074,-0.0207 z"
       id="icon.dc"
       inkscape:label=""
       inkscape:connector-curvature="0" />
    <path
       style="clip-rule:evenodd;fill-rule:evenodd;stroke-width:0.41784841"
       d="m 89.847158,136.8513 v 5.39036 h 3.1595 v -0.97771 h -2.23139 v -4.41265 z m 12.711372,0 v 0.95291 h 2.23139 l -2.30632,3.48454 v 0.95291 h 3.48454 v -0.95291 h -2.33164 l 2.33164,-3.53518 v -0.90227 z m -5.866312,1.25367 0.92759,4.13669 h 0.90227 l 0.527098,-3.0086 0.526577,3.0086 h 0.902277 l 0.95292,-4.13669 h -0.90279 l -0.52658,2.98328 -0.501267,-2.98328 h -0.877985 l -0.47594,2.95847 -0.52658,-2.95847 z m -1.72858,5.1e-4 c -0.52241,-0.008 -1.04935,0.20868 -1.33015,0.62632 -0.55783,0.85324 -0.55532,2.0525 0,2.90783 0.34975,0.46339 0.81212,0.62163 1.37873,0.60203 0.50393,0.009 0.90854,-0.22653 1.20354,-0.62683 0.52988,-0.81689 0.53357,-1.94165 0.0501,-2.78278 -0.26199,-0.48428 -0.77983,-0.71816 -1.30224,-0.72657 z m -0.0749,0.85215 c 0.15246,0.009 0.32742,0.0778 0.52452,0.22531 0.63012,0.68694 0.2669,2.91814 -1.00252,2.00556 -0.5144,-0.57397 -0.34527,-2.27899 0.478,-2.23087 z"
       id="icon.lowz"
       inkscape:label=""
       inkscape:connector-curvature="0" />
    <path
       style="clip-rule:evenodd;fill-rule:evenodd;stroke-width:0.41784844"
       d="m 141.13631,137.93425 h -6.01701 l 0.47676,-2.7578 h 5.8411 z"
       id="aux.negative"
       inkscape:label=""
       inkscape:connector-curvature="0" />
    <path
       style="clip-rule:evenodd;fill-rule:evenodd;stroke-width:0.52272403"
       d="m 83.597611,154.25584 -1.628574,12.37477 -3.570364,3.76896 -2.067049,-2.26138 1.565952,-15.23289 0.03135,-0.18845 0.03173,-0.15704 0.06258,-0.18844 c 0.443672,-1.85988 2.057117,-4.42696 3.601682,-5.55922 z"
       id="main.2.b"
       inkscape:label=""
       inkscape:connector-curvature="0" />
    <path
       style="clip-rule:evenodd;fill-rule:evenodd;stroke-width:0.52272403"
       d="m 94.34001,146.6551 c 1.642175,0.001 3.616824,0.4418 4.823116,1.63321 l -4.102777,4.55417 H 84.286628 l -1.659893,-6.18738 z"
       id="main.2.a"
       inkscape:label=""
       inkscape:connector-curvature="0" />
    <path
       style="clip-rule:evenodd;fill-rule:evenodd;stroke-width:0.52272403"
       d="m 82.313544,167.66708 h 11.055584 l 2.568141,2.76391 -3.16319,3.42346 H 81.467927 l -2.442874,-2.63828 z"
       id="main.2.d"
       inkscape:label=""
       inkscape:connector-curvature="0" />
    <path
       style="clip-rule:evenodd;fill-rule:evenodd;stroke-width:0.52272403"
       d="m 101.44939,152.62263 -0.0314,0.18844 -1.534637,13.75673 -3.100555,3.32923 -2.693431,-2.88952 1.659892,-13.15997 4.353331,-4.80543 c 0.92339,0.9349 1.4036,2.2619 1.3467,3.58052 z"
       id="main.2.c"
       inkscape:label=""
       inkscape:connector-curvature="0" />
    <path
       style="clip-rule:evenodd;fill-rule:evenodd;stroke-width:0.52272403"
       d="m 101.57144,195.05489 h -3.131899 l 0.876921,-5.90473 h 3.163208 z"
       id="main.3.h"
       inkscape:label=""
       inkscape:connector-curvature="0" />
    <path
       style="clip-rule:evenodd;fill-rule:evenodd;stroke-width:0.52272403"
       d="m 61.043544,194.80834 h -12.84023 l -0.187803,-0.0315 h -0.156654 l -0.188006,-0.0315 c -0.295436,0.0225 -0.875353,-0.17055 -1.19011,-0.25126 -0.737553,-0.23975 -1.528365,-0.62293 -2.067054,-1.19351 l 3.820908,-4.74261 h 10.929769 z"
       id="main.1.g"
       inkscape:label=""
       inkscape:connector-curvature="0" />
    <path
       style="clip-rule:evenodd;fill-rule:evenodd;stroke-width:0.52272403"
       d="m 70.568953,195.05493 h -3.131891 l 0.876924,-5.90471 h 3.13189 z"
       id="main.2.h"
       inkscape:label=""
       inkscape:connector-curvature="0" />
    <path
       style="clip-rule:evenodd;fill-rule:evenodd;stroke-width:0.52272403"
       d="M 92.304284,195.05493 H 79.432209 l -0.156638,-0.0315 h -0.18782 l -0.156639,-0.0315 c -0.28502,0.0288 -0.881632,-0.1749 -1.190126,-0.25127 -0.698422,-0.22928 -1.575869,-0.62869 -2.067048,-1.19349 l 3.789577,-4.74262 h 10.961626 z"
       id="main.2.g"
       inkscape:label=""
       inkscape:connector-curvature="0" />
    <path
       style="clip-rule:evenodd;fill-rule:evenodd;stroke-width:0.52272403"
       d="m 96.845531,171.24762 1.910436,2.16717 -2.223625,14.79319 -0.06261,0.31409 -0.03136,0.18853 -0.03136,0.1571 c -0.04118,0.28998 -0.127444,0.57266 -0.219239,0.848 -0.176969,0.54231 -0.420713,1.25948 -0.689022,1.75886 -0.242714,0.5465 -0.589841,1.14639 -0.939566,1.63321 -0.1525,0.24971 -0.354417,0.45908 -0.532415,0.69098 l -0.125266,0.12563 -0.09397,0.15708 -0.250555,0.25127 -0.09397,0.12564 -0.06261,0.0315 -2.035725,-6.62708 1.91046,-12.8459 z"
       id="main.2.f"
       inkscape:label=""
       inkscape:connector-curvature="0" />
    <path
       style="clip-rule:evenodd;fill-rule:evenodd;stroke-width:0.52272403"
       d="m 78.179448,171.9072 2.912654,3.07799 -2.129684,12.72026 -4.008826,4.77403 c -0.701009,-0.76951 -1.094061,-2.20224 -1.064842,-3.23504 -0.09706,-0.57216 0.0361,-1.15005 0,-1.72744 0.302247,-4.0485 0.632651,-8.08077 1.252249,-12.15491 z"
       id="main.2.e"
       inkscape:label=""
       inkscape:connector-curvature="0" />
    <path
       style="clip-rule:evenodd;fill-rule:evenodd;stroke-width:0.52272403"
       d="m 46.95056,171.66065 2.881342,3.07799 -2.129687,12.72026 -4.008819,4.77403 c -0.792883,-1.08464 -1.014732,-1.91066 -1.064843,-3.23504 -0.08823,-4.65206 1.11286,-9.23867 1.284059,-13.88235 z"
       id="main.1.e"
       inkscape:label=""
       inkscape:connector-curvature="0" />
    <path
       style="clip-rule:evenodd;fill-rule:evenodd;stroke-width:0.41784841"
       d="m 26.244906,139.96695 v 6.61871 h 2.732648 l 0.125574,-0.0248 h 0.150379 l 0.125574,-0.0253 c 0.209761,-0.0664 0.362108,-0.0601 0.551389,-0.20051 0.362278,-0.25321 0.6145,-0.63489 0.75189,-1.05316 0.20225,-0.81982 0.100108,-1.85088 -0.75189,-2.25619 0.80269,-0.44083 0.811998,-1.62982 0.426328,-2.35645 h -0.02532 c -0.24068,-0.47969 -0.781341,-0.65218 -1.27899,-0.70228 z m 5.063773,0 v 1.17822 h 1.65468 v 5.44049 h 1.153417 v -5.44049 h 1.65468 v -1.17822 z m -3.960998,1.15341 h 1.454174 l 0.125574,0.0248 0.150378,0.0253 c 0.44204,0.1638 0.468808,0.48192 0.401011,0.90227 -0.124532,0.28665 -0.06198,0.31226 -0.376206,0.42633 l -0.125058,0.0501 -0.150378,0.0253 h -1.479495 z m -5.29e-4,2.55695 h 1.504818 l 0.149862,0.0253 0.12609,0.0248 c 0.466791,0.1007 0.566214,0.79198 0.425815,1.15342 l -0.02479,0.12506 -0.07596,0.12557 -0.199988,0.2005 h -0.02532 l -0.125574,0.0501 -0.125058,0.0253 -0.150378,0.0248 h -1.479506 z"
       id="icon.bt"
       inkscape:label=""
       inkscape:connector-curvature="0" />
    <path
       style="clip-rule:evenodd;fill-rule:evenodd;stroke-width:0.41784841"
       d="m 85.629328,136.9593 c -1.24542,0.009 -2.30728,1.26107 -2.17455,2.77502 -0.21309,1.96807 2.03238,3.73634 3.45974,1.85519 l 0.10025,0.65215 h 0.601 v -2.75797 h -1.85467 v 0.85266 h 1.02785 c -0.22522,1.67474 -2.42517,1.46278 -2.38177,-0.47645 -0.0129,-0.64265 0.0778,-1.53136 0.72709,-1.85519 0.57495,-0.35977 1.47043,-0.0178 1.55443,0.70177 h 0.92759 c -0.0497,-0.41702 -0.20501,-0.82474 -0.50126,-1.1281 -0.48289,-0.43576 -0.99837,-0.62266 -1.4857,-0.61908 z m -9.34517,0.0176 -1.60455,5.38985 h 0.97772 l 0.30076,-1.10277 h 1.65519 l 0.30076,1.10277 h 1.00252 l -1.57871,-5.38985 z m 2.88303,0 1.52962,5.38985 h 0.87747 l 1.52911,-5.38985 h -0.97772 l -0.97772,4.08657 -0.97824,-4.08657 z m -2.38177,1.22835 0.57671,2.13113 h -1.1529 z"
       id="icon.avg"
       inkscape:label=""
       inkscape:connector-curvature="0" />
    <path
       style="clip-rule:evenodd;fill-rule:evenodd;stroke-width:0.52272403"
       d="m 112.04572,147.00514 0.15704,-0.12564 0.25002,-0.18844 0.15666,-0.12564 1.9423,7.44371 -1.5978,12.37477 -3.60114,3.76897 -2.03574,-2.2614 1.56595,-15.23289 0.0314,-0.18844 0.0317,-0.15704 0.0314,-0.18845 c 0.0992,-0.26958 0.16336,-0.55173 0.28188,-0.8166 0.20983,-0.56378 0.43168,-1.04536 0.72033,-1.57041 0.55958,-1.00139 1.25903,-1.91641 2.06601,-2.73249 z"
       id="main.3.b"
       inkscape:label=""
       inkscape:connector-curvature="0" />
    <g
       id="icon.main.ac"
       inkscape:label=""
       transform="translate(-35.900517,36.421596)">
      <path
         id="path4935"
         transform="matrix(0.26458333,0,0,0.26458333,24.575937,125.35773)"
         d="m 169.87695,84.6875 c -5.02668,-0.09379 -10.01806,4.128357 -9.48828,11.111328 1.05812,10.669572 14.36587,12.522272 18.09766,2.369141 h -3.79102 l -0.66211,1.042969 c -4.14712,5.105762 -10.70456,1.105122 -10.23242,-5.117188 0.76747,-6.258671 7.687,-8.486524 10.89453,-2.654297 h 3.79102 c -1.71494,-4.603965 -5.17007,-6.68778 -8.60938,-6.751953 z"
         style="clip-rule:evenodd;fill-rule:evenodd;stroke-width:1.57926965"
         inkscape:connector-curvature="0" />
      <path
         id="path4933"
         transform="matrix(0.26458333,0,0,0.26458333,24.575937,125.35773)"
         d="m 148.63867,84.712891 -7.58008,20.181639 h 3.50586 l 1.41993,-3.97851 h 8.71874 l 1.51563,3.97851 h 3.50781 l -7.58203,-20.181639 z m 1.70508,4.642578 3.12695,8.24414 h -6.2539 z"
         style="clip-rule:evenodd;fill-rule:evenodd;stroke-width:1.57926965"
         inkscape:connector-curvature="0" />
    </g>
    <g
       id="icon.main.dc"
       inkscape:label=""
       transform="translate(-20.419112,28.56225)">
      <path
         id="path4931"
         transform="matrix(0.26458333,0,0,0.26458333,24.575937,125.35773)"
         d="m 110.41016,84.867188 c -5.00096,-0.104172 -10.03002,4.108096 -9.62305,11.121093 1.29657,10.603239 14.38166,12.623339 18.09766,2.369141 h -3.69532 c -1.23976,2.289938 -3.12961,3.556408 -5.78125,3.316408 -11.252255,-3.060588 -1.69348,-20.889787 5.78125,-10.044924 h 3.69532 c -1.64501,-4.599482 -5.0529,-6.690443 -8.47461,-6.761718 z"
         style="clip-rule:evenodd;fill-rule:evenodd;stroke-width:1.57926965"
         inkscape:connector-curvature="0" />
      <path
         id="path4929"
         transform="matrix(0.26458333,0,0,0.26458333,24.575937,125.35773)"
         d="m 90.126953,84.892578 c -1.922669,-0.01766 -3.088952,0.591316 -7.439453,0.0098 v 20.181632 c 6.612397,0.60484 14.664491,0.91569 15.730469,-7.294914 0.443792,-5.857509 0.261057,-10.593109 -5.970703,-12.603515 -0.955068,-0.212391 -1.679423,-0.287082 -2.320313,-0.292969 z M 86.193359,88.3125 h 4.642579 c 4.996798,0.835427 4.232644,5.458889 4.076171,9.476562 -0.90017,4.453568 -4.979058,4.226458 -8.71875,3.978518 z"
         style="clip-rule:evenodd;fill-rule:evenodd;stroke-width:1.57926965"
         inkscape:connector-curvature="0" />
    </g>
    <path
       style="clip-rule:evenodd;fill-rule:evenodd;stroke-width:0.41784841"
       d="m 41.753078,138.22173 v 2.03088 h -1.83038 v 0.80253 h 1.83038 v 2.03037 h 1.027843 v -2.03037 h 1.855184 v -0.80253 h -1.855184 v -2.03088 z"
       id="icon.main.dc_ac"
       inkscape:label=""
       inkscape:connector-curvature="0" />
    <path
       style="clip-rule:evenodd;fill-rule:evenodd;stroke-width:0.41784841"
       d="m 63.271429,127.72902 v 5.39037 h 0.877466 v -3.96151 c 0,-0.19222 -1.07e-4,-0.38398 -5.29e-4,-0.57619 l 0.852661,4.5377 h 0.902787 l 0.852157,-4.5377 v 4.5377 h 0.877466 v -5.39037 h -1.353406 l -0.827339,4.23695 -0.802019,-4.23695 z m 6.518465,0 -1.604553,5.39037 h 0.977718 l 0.301274,-1.10329 h 1.654679 l 0.301274,1.10329 h 1.002006 l -1.578715,-5.39037 z m 2.907833,0 1.378727,2.6324 -1.453658,2.75797 h 1.103292 l 0.902787,-1.85518 0.852145,1.85518 h 1.128096 l -1.454174,-2.78277 1.378727,-2.6076 h -1.077971 l -0.827339,1.75494 -0.802535,-1.75494 z m -2.406055,1.22835 0.576193,2.13114 h -1.152901 z"
       id="icon.max"
       inkscape:label=""
       inkscape:connector-curvature="0" />
    <path
       style="clip-rule:evenodd;fill-rule:evenodd;stroke-width:0.41784841"
       d="m 97.798725,126.50875 -0.626835,0.35088 c 0.03096,0.21895 0.127778,0.44939 0.150378,0.70177 0.06819,0.2925 0.04077,0.48915 0.125574,0.80253 0.0392,0.57454 0.09425,1.09451 0.07545,1.67949 -0.0058,1.00744 -0.148461,2.16643 -0.426331,3.13417 l 0.676962,0.25063 c 0.577859,-2.2476 0.59473,-4.51396 0.07493,-6.76909 z m -1.278992,0.60151 -0.652156,0.32608 0.02532,0.0248 0.02481,0.12557 0.02532,0.15038 0.02532,0.12505 0.02532,0.15038 c 0.0188,0.22606 0.07345,0.45007 0.07545,0.67696 0.0376,0.29918 0.101427,1.04916 0.05013,1.32912 0.02465,0.81982 -0.151563,1.78459 -0.350883,2.58227 l 0.676444,0.25063 c 0.05216,-0.31841 0.152505,-0.65623 0.200505,-1.00304 0.06439,-0.31631 0.119057,-0.62981 0.125057,-0.95239 0.0693,-0.63638 0.06544,-1.38991 0.02584,-2.03089 -0.07354,-0.5854 -0.105989,-1.18582 -0.276469,-1.75493 z m -2.932637,0.10025 -2.106331,1.37873 v 2.75797 l 2.106331,1.37873 z m 1.654163,0.47646 -0.65164,0.32556 c 0.24144,1.38559 0.191325,2.64778 -0.150895,4.01164 l 0.652673,0.22583 c 0.21723,-0.70407 0.299883,-1.5486 0.350883,-2.28151 -8.47e-4,-0.72371 -0.0391,-1.4457 -0.1757,-2.15646 z m -5.139222,0.90227 v 2.75797 h 0.676962 v -2.75797 z"
       id="icon.beep"
       inkscape:label=""
       inkscape:connector-curvature="0" />
    <path
       style="clip-rule:evenodd;fill-rule:evenodd;stroke-width:0.41784841"
       d="m 50.48513,127.72902 v 5.39037 h 0.877982 v -4.5377 l 0.852145,4.5377 h 0.902787 l 0.852144,-4.5377 v 0.30075 c 0,1.41232 -1.06e-4,2.82462 -5.29e-4,4.23695 h 0.877466 v -5.39037 h -1.353393 l -0.82734,4.23695 -0.802018,-4.23695 z m 5.139738,0 v 5.39037 h 0.927592 v -5.39037 z m 1.804541,0 v 5.39037 h 0.877982 v -3.83594 l 1.830379,3.83594 h 0.927592 v -5.39037 h -0.877465 v 3.7605 l -1.780254,-3.7605 z"
       id="icon.min"
       inkscape:label=""
       inkscape:connector-curvature="0" />
    <path
       style="clip-rule:evenodd;fill-rule:evenodd;stroke-width:0.41784841"
       d="m 35.187603,192.74818 -2.206066,-0.004 0.0028,-1.47898 -3.635433,-0.007 -0.0028,1.47897 -2.206066,-0.004 -0.02414,12.86121 8.047565,0.0151 z m -2.235715,2.30212 -0.0025,1.32912 -1.128098,-0.002 -0.0021,1.1281 -1.328598,-0.002 0.0021,-1.12809 -1.128098,-0.002 0.0025,-1.32911 1.128098,0.002 0.0021,-1.12809 1.328597,0.002 -0.0021,1.1281 z m -1.137793,5.16242 -0.0067,3.5853 -1.328598,-0.002 0.0067,-3.5853 z"
       id="icon.battery"
       inkscape:label=""
       inkscape:connector-curvature="0" />
    <path
       style="clip-rule:evenodd;fill-rule:evenodd;stroke-width:0.41784841"
       d="m 166.49612,151.15983 -1.75493,4.91391 h 1.07797 l 0.32608,-1.00304 h 1.80506 l 0.32556,1.00304 h 1.10381 l -1.73065,-4.91391 z m 0.57671,1.12809 0.60151,1.93063 h -1.25367 z m 8.46253,0.009 c -0.42337,-0.004 -0.89111,0.14221 -1.36787,0.49247 -0.72664,0.74127 -0.73665,2.0344 -0.10026,2.83291 0.49933,0.74042 2.14184,0.7643 2.68253,0.10076 1.24245,-1.469 0.29764,-3.41061 -1.2144,-3.42614 z m -3.83491,0.061 c -0.36821,0.0276 -0.73467,0.21651 -1.01802,0.60719 v -0.52658 h -0.90227 v 5.06429 h 0.92759 v -1.8805 l 0.0253,0.0253 0.0997,0.12557 0.0754,0.10025 h 5.3e-4 c 1.26441,0.89211 2.54538,-0.25719 2.38074,-1.78025 0.0396,-1.07526 -0.77898,-1.79597 -1.58905,-1.73529 z m 3.73053,0.75602 c 0.16744,0.005 0.35725,0.0661 0.56689,0.20206 0.67441,0.71578 0.30716,2.58705 -0.97772,1.98075 -0.74919,-0.56868 -0.49339,-2.20742 0.41083,-2.18281 z m -3.99924,0.0563 c 0.55979,-0.0487 1.10254,0.72067 0.82992,1.52445 -0.50475,1.45077 -1.9782,0.43041 -1.52859,-0.87746 0.18647,-0.43404 0.44421,-0.62486 0.69867,-0.64699 z"
       id="icon.apo"
       inkscape:label=""
       inkscape:connector-curvature="0" />
    <path
       style="clip-rule:evenodd;fill-rule:evenodd;stroke-width:0.52272403"
       d="m 141.88711,147.54531 c 0.20671,-0.22196 0.36383,-0.41354 0.59506,-0.62816 l 0.12528,-0.12563 0.12528,-0.0942 0.15664,-0.0942 0.12528,-0.12563 h 0.0314 l 1.94177,7.44369 -1.62806,12.37477 -3.57088,3.76897 -2.06704,-2.26137 c 1.30807,-6.00523 -0.63107,-14.9518 4.1654,-20.25819 z"
       id="main.4.b"
       inkscape:label=""
       inkscape:connector-curvature="0" />
    <path
       style="clip-rule:evenodd;fill-rule:evenodd;stroke-width:0.5715211"
       d="m 77.296143,197.70079 -0.161431,0.0368 c -0.472182,0.12895 -1.039472,0.59836 -1.193163,1.13102 -0.689767,1.95916 -0.323813,6.20065 -0.192658,7.62531 0.08755,0.58981 0.360517,1.15522 0.805843,1.49573 0.248709,0.1952 0.542297,0.27926 0.837738,0.32787 h 21.143399 l 0.19333,-0.0361 c 0.52537,-0.1666 0.96311,-0.5643 1.19249,-1.13102 0.636039,-1.97497 0.136899,-5.95497 0.193329,-7.62531 -0.123539,-0.58251 -0.361809,-1.1856 -0.837739,-1.49571 -0.24979,-0.18733 -0.54177,-0.29211 -0.83774,-0.32864 z m 18.867367,1.84692 c 0.930051,-0.0506 1.892931,0.36042 2.403591,1.21824 0.82562,1.2684 0.78985,4.03861 -0.19266,5.18055 -0.92554,1.34867 -3.452432,1.29122 -4.254456,-0.25569 -0.846018,-1.2307 -0.83356,-4.03557 0.160775,-5.18054 0.455687,-0.60468 1.159365,-0.92315 1.88275,-0.96256 z m -17.031116,0.0145 h 1.38582 l 2.063453,7.33276 H 81.26028 l -0.38664,-1.49572 h -2.159781 l -0.38732,1.49572 h -1.288824 z m 3.641931,0 h 1.22439 v 4.59698 l 0.03252,0.18198 v 0.21884 l 0.03189,0.18273 0.0644,0.18199 c 0.08973,0.39281 0.212468,0.47144 0.548752,0.6204 0.565631,0.21464 1.30231,0.0497 1.4828,-0.69335 l 0.03253,-0.21883 0.03252,-0.18198 v -4.88876 h 1.256941 v 4.77896 l -0.03252,0.21884 v 0.18273 l -0.03252,0.21884 -0.03253,0.18273 c -0.129471,0.48037 -0.1712,0.67377 -0.515531,1.05806 -0.49099,0.57589 -1.254481,0.72724 -1.934568,0.6926 -0.748286,-0.0614 -1.371397,-0.26602 -1.804355,-1.02122 -0.29868,-0.58556 -0.200873,-0.46434 -0.322874,-1.09491 l -0.03189,-0.21883 z m 5.640945,0 h 4.769979 v 1.31298 H 91.41212 v 6.01978 h -1.22439 v -6.01978 h -1.77246 z m 7.897051,1.22576 c -0.505881,0.004 -1.006205,0.28234 -1.257601,0.81743 -0.45988,0.78501 -0.440197,2.68912 0.09693,3.42913 0.644617,0.94613 1.995171,0.83456 2.481321,-0.25569 0.40998,-0.89871 0.35905,-2.28203 -0.0325,-3.17344 -0.27127,-0.55426 -0.78228,-0.82222 -1.28817,-0.81743 z m -16.503633,0.45194 -0.772623,2.88243 h 1.514032 z"
       id="icon.auto"
       inkscape:label=""
       inkscape:connector-curvature="0" />
    <path
       style="clip-rule:evenodd;fill-rule:evenodd;stroke-width:0.52272403"
       d="m 155.73007,146.3204 c 1.6051,-0.004 3.66483,0.44077 4.82312,1.63322 l -4.07147,4.55415 H 145.6767 l -1.6599,-6.18737 z"
       id="main.4.a"
       inkscape:label=""
       inkscape:connector-curvature="0" />
    <path
       style="clip-rule:evenodd;fill-rule:evenodd;stroke-width:0.52272403"
       d="m 154.16412,173.51977 h -11.30561 l -2.44338,-2.63829 3.31981,-3.5491 h 11.02426 l 2.56814,2.7639 z"
       id="main.4.d"
       inkscape:label=""
       inkscape:connector-curvature="0" />
    <path
       style="clip-rule:evenodd;fill-rule:evenodd;stroke-width:0.52272403"
       d="m 162.83947,152.28792 -0.0314,0.18845 -1.50329,13.75672 -3.1319,3.32926 -2.69343,-2.88955 1.65991,-13.15997 4.38465,-4.80543 c 0.91293,0.97994 1.37908,2.23575 1.31539,3.58052 z"
       id="main.4.c"
       inkscape:label=""
       inkscape:connector-curvature="0" />
    <g
       id="icon.lowpass"
       inkscape:label=""
       transform="translate(-1.042762,-0.10689681)">
      <path
         id="path5925"
         d="m 63.953266,139.4226 v 0.77719 l -1.72988,2.08089 h 1.78002 v 0.7772 h -2.95837 v -0.72711 l 1.72991,-2.13102 h -1.60454 v -0.7772 z"
         style="clip-rule:evenodd;fill-rule:evenodd;stroke-width:0.41784844"
         inkscape:connector-curvature="0" />
      <path
         id="path5921"
         d="m 60.618836,138.19412 v 4.86376 h -1.00243 v -2.15609 h -1.85525 v 2.15609 h -0.97775 v -4.86375 h 0.97775 v 1.85524 h 1.85525 v -1.85524 z"
         style="clip-rule:evenodd;fill-rule:evenodd;stroke-width:0.41784844"
         inkscape:connector-curvature="0" />
      <path
         id="path5903"
         d="m 51.217236,143.05787 h -0.95227 v -3.33443 h -1.10355 v -0.65184 c 0.6226,-0.0506 1.20676,-0.0673 1.27904,-0.87748 h 0.77678 z"
         style="clip-rule:evenodd;fill-rule:evenodd;stroke-width:0.41784844"
         inkscape:connector-curvature="0" />
      <path
         id="path5867"
         d="m 62.825076,135.76224 3.9612,7.64662 1.07804,-0.45127 -4.28754,-8.2734 h -14.01463 v 1.07805 z"
         style="clip-rule:evenodd;fill-rule:evenodd;stroke-width:0.41784844"
         inkscape:connector-curvature="0" />
      <path
         id="path5853"
         d="m 56.431986,139.47273 -1.25355,1.35383 1.30369,2.23131 h -1.12818 l -0.85241,-1.52932 -0.37565,0.40113 v 1.12819 h -0.90255 v -4.86374 h 0.90255 v 2.63244 l 1.15326,-1.35383 z"
         style="clip-rule:evenodd;fill-rule:evenodd;stroke-width:0.41784844"
         inkscape:connector-curvature="0" />
    </g>
    <path
       style="clip-rule:evenodd;fill-rule:evenodd;stroke-width:0.52272403"
       d="m 123.25789,194.80817 h -12.84127 l -0.15666,-0.0314 h -0.18742 l -0.15704,-0.0315 c -0.27089,0.0293 -0.89936,-0.16915 -1.18959,-0.25126 -0.68328,-0.19211 -1.59412,-0.65226 -2.06705,-1.19351 l 3.7896,-4.74261 h 10.92978 z"
       id="main.3.g"
       inkscape:label=""
       inkscape:connector-curvature="0" />
    <path
       style="clip-rule:evenodd;fill-rule:evenodd;stroke-width:0.52272403"
       d="m 153.69435,194.72019 h -12.84129 l -0.18742,-0.0314 H 140.509 l -0.18782,-0.0315 c -0.23229,0.0283 -0.91243,-0.17211 -1.15879,-0.25126 -0.6603,-0.17687 -1.63486,-0.65591 -2.06704,-1.19351 l 3.78956,-4.74261 h 10.92979 z"
       id="main.4.g"
       inkscape:label=""
       inkscape:connector-curvature="0" />
    <path
       style="clip-rule:evenodd;fill-rule:evenodd;stroke-width:0.52272403"
       d="m 109.91602,187.45869 -4.00881,4.77403 c -0.77671,-1.04276 -0.96723,-1.9714 -1.06484,-3.23504 -0.0435,-4.59028 1.07216,-9.49467 1.28407,-13.88235 l 3.03792,-3.45489 2.88136,3.07799 z"
       id="main.3.e"
       inkscape:label=""
       inkscape:connector-curvature="0" />
    <path
       style="clip-rule:evenodd;fill-rule:evenodd;stroke-width:0.52272403"
       d="m 160.17735,173.08005 -2.22363,14.7932 -0.0627,0.31408 -0.0317,0.18855 -0.0314,0.15708 c -0.0913,0.27742 -0.14205,0.56637 -0.21922,0.848 -0.25577,0.68627 -0.3539,1.07102 -0.68902,1.75886 -0.5225,1.07364 -1.26476,2.15772 -2.09838,3.01517 l -2.06704,-6.62708 1.90993,-12.8459 3.57089,-3.76897 z"
       id="main.4.f"
       inkscape:label=""
       inkscape:connector-curvature="0" />
    <path
       style="clip-rule:evenodd;fill-rule:evenodd;stroke-width:0.52272403"
       d="m 140.35249,187.37071 -4.00882,4.77403 c -0.73286,-0.91922 -1.03562,-2.08028 -1.06485,-3.23504 -0.0746,-4.62482 1.13636,-9.34391 1.28407,-13.88235 l 3.03795,-3.45489 2.88133,3.07799 z"
       id="main.4.e"
       inkscape:label=""
       inkscape:connector-curvature="0" />
    <path
       style="clip-rule:evenodd;fill-rule:evenodd;stroke-width:0.52272403"
       d="m 127.83044,171.00086 1.91047,2.16717 -2.22366,14.7932 -0.0627,0.31408 -0.0317,0.18855 -0.0314,0.15708 c -0.0245,0.23555 -0.18526,0.59936 -0.21925,0.848 -0.19314,0.61404 -0.40453,1.1799 -0.68901,1.75886 -0.51101,1.08934 -1.24753,2.16558 -2.09836,3.01517 l -2.06705,-6.62708 1.94179,-12.8459 z"
       id="main.3.f"
       inkscape:label=""
       inkscape:connector-curvature="0" />
    <path
       style="clip-rule:evenodd;fill-rule:evenodd;stroke-width:0.52272403"
       d="m 125.32493,146.40838 c 0.89364,-0.008 1.84209,0.14499 2.69343,0.4083 0.42593,0.16488 0.87692,0.30152 1.25224,0.56534 l 0.3137,0.18846 0.12528,0.0942 0.12467,0.12563 0.15664,0.0942 0.12529,0.12564 v 0.0315 l -4.07146,4.55417 h -10.77371 l -1.66043,-6.18739 z"
       id="main.3.a"
       inkscape:label=""
       inkscape:connector-curvature="0" />
    <path
       style="clip-rule:evenodd;fill-rule:evenodd;stroke-width:0.52272403"
       d="m 123.75899,173.60775 h -11.33745 l -2.41155,-2.63829 3.28847,-3.5491 h 11.02426 l 2.59895,2.7639 z"
       id="main.3.d"
       inkscape:label=""
       inkscape:connector-curvature="0" />
    <path
       style="clip-rule:evenodd;fill-rule:evenodd;stroke-width:0.52272403"
       d="m 132.40301,152.3759 v 0.18845 l -1.53411,13.75672 -3.10056,3.32926 -2.72476,-2.88955 1.65992,-13.15997 4.38464,-4.80543 c 0.87849,0.94801 1.4537,2.27395 1.31487,3.58052 z"
       id="main.3.c"
       inkscape:label=""
       inkscape:connector-curvature="0" />
    <path
       style="clip-rule:evenodd;fill-rule:evenodd;stroke-width:0.52272403"
       d="m 67.527046,173.16825 -2.254965,14.7932 v 0.15708 l -0.03137,0.1571 -0.03136,0.18834 -0.06273,0.15708 c -0.04118,0.28999 -0.127444,0.57267 -0.219227,0.84802 -0.142432,0.49468 -0.450473,1.30448 -0.689549,1.75884 -0.204084,0.54022 -0.607056,1.15636 -0.939039,1.63323 -0.170636,0.23242 -0.32571,0.48628 -0.532428,0.69098 l -0.09445,0.12563 -0.124667,0.15709 -0.125877,0.12563 -0.09397,0.12563 -0.124667,0.12564 -0.06261,0.0315 -2.035726,-6.62711 1.910448,-12.84587 3.569838,-3.76897 z"
       id="main.1.f"
       inkscape:label=""
       inkscape:connector-curvature="0" />
    <path
       style="clip-rule:evenodd;fill-rule:evenodd;stroke-width:0.52272403"
       d="m 63.079294,146.4086 c 1.643719,0.004 3.620475,0.435 4.823118,1.63322 l -4.10278,4.55415 H 53.026457 l -1.659904,-6.18737 z"
       id="main.1.a"
       inkscape:label=""
       inkscape:connector-curvature="0" />
    <path
       style="clip-rule:evenodd;fill-rule:evenodd;stroke-width:0.52272403"
       d="m 64.676553,170.18448 -3.16319,3.42349 H 50.207748 l -2.442876,-2.63829 3.28848,-3.5491 h 11.055586 z"
       id="main.1.d"
       inkscape:label=""
       inkscape:connector-curvature="0" />
    <path
       style="clip-rule:evenodd;fill-rule:evenodd;stroke-width:0.52272403"
       d="m 70.188682,152.37612 -0.03137,0.18845 -1.534638,13.75672 -3.100557,3.32926 -2.692917,-2.88955 1.659916,-13.15997 4.353312,-4.80543 c 0.906693,0.87158 1.43128,2.32368 1.346201,3.58052 z"
       id="main.1.c"
       inkscape:label=""
       inkscape:connector-curvature="0" />
    <path
       style="clip-rule:evenodd;fill-rule:evenodd;stroke-width:0.41784844"
       d="m 170.70775,159.0901 -2.20624,6.16744 3.43513,-1.12818 -0.97818,4.16177 -1.07806,-1.10312 1.30369,2.58229 2.65751,-2.03073 -1.67974,0.62676 1.47877,-5.44038 -3.53501,0.82733 2.73274,-5.0894 z"
       id="icon.flash"
       inkscape:label=""
       inkscape:connector-curvature="0" />
    <path
       style="clip-rule:evenodd;fill-rule:evenodd;stroke-width:0.41784844"
       d="m 172.24243,176.68087 h -1.25355 v -2.48201 h -2.4816 v -1.25354 h 2.4816 v -2.48203 h 1.25355 v 2.48203 h 2.48203 v 1.25354 h -2.48203 z"
       id="bar.positive"
       inkscape:label=""
       inkscape:connector-curvature="0" />
    <path
       style="clip-rule:evenodd;fill-rule:evenodd;stroke-width:0.41784844"
       d="m 174.72446,178.26035 v 1.25354 h -6.21759 v -1.25354 z"
       id="bar.negative"
       inkscape:label=""
       inkscape:connector-curvature="0" />
    <path
       style="clip-rule:evenodd;fill-rule:evenodd;stroke-width:0.5247227"
       d="m 34.757313,160.88241 -0.189633,0.0314 h -6.514412 l -0.158161,-0.0314 -0.158174,-0.0628 -0.126489,-0.12537 -0.06332,-0.15676 -0.03166,-0.15678 v -0.094 l 0.06319,-0.15677 3.257187,-6.20611 0.03166,-0.0628 0.126489,-0.12538 c 0.28354,-0.17236 0.649851,-0.10027 0.822719,0.18797 l 3.257213,6.20611 0.03166,0.0628 0.03204,0.18816 -0.03204,0.15677 -0.09485,0.12538 -0.126489,0.12537 z"
       id="icon.rel"
       inkscape:label=""
       inkscape:connector-curvature="0" />
    <path
       style="clip-rule:evenodd;fill-rule:evenodd;stroke-width:0.51416427"
       d="m 34.250552,171.66065 h -8.07283 l 1.57946,-4.74509 h 8.04777 z"
       id="main.negative"
       inkscape:label=""
       inkscape:connector-curvature="0" />
    <path
       style="clip-rule:evenodd;fill-rule:evenodd;stroke-width:0.41784841"
       d="m 81.035809,127.71178 v 2.13113 h -2.105814 v 0.75189 h 2.105814 v 2.13114 l 3.535185,-2.13114 v 2.13114 h 0.626318 v -2.13114 h 2.106332 v -0.75189 h -2.106332 v -2.13113 h -0.626318 v 2.13113 z"
       id="icon.diode"
       inkscape:label=""
       inkscape:connector-curvature="0" />
    <text
       xml:space="preserve"
       style="font-style:normal;font-weight:normal;font-size:10.58333302px;line-height:1.25;font-family:sans-serif;letter-spacing:0px;word-spacing:0px;fill:#000000;fill-opacity:1;stroke:none;stroke-width:0.26458332"
       x="152.40453"
       y="268.42142"
       id="text1033"><tspan
         sodipodi:role="line"
         id="tspan1031"
         x="152.40453"
         y="277.78519"
         style="stroke-width:0.26458332" /></text>
    <text
       xml:space="preserve"
       style="font-style:normal;font-weight:normal;font-size:8.6494112px;line-height:1.25;font-family:sans-serif;letter-spacing:0px;word-spacing:0px;fill:#000000;fill-opacity:1;stroke:none;stroke-width:0.21623527"
       x="52.311195"
       y="190.70352"
       id="icon.rms"
       transform="scale(0.92348799,1.0828511)"
       inkscape:label="#text8758"><tspan
         sodipodi:role="line"
         id="tspan8756"
         x="52.311195"
         y="198.35622"
         style="stroke-width:0.21623527" /></text>
    <text
       xml:space="preserve"
       style="font-style:normal;font-weight:normal;font-size:10.58333302px;line-height:1.25;font-family:sans-serif;letter-spacing:0px;word-spacing:0px;fill:#000000;fill-opacity:1;stroke:none;stroke-width:0.26458332"
       x="45.061703"
       y="207.17683"
       id="text8762"><tspan
         sodipodi:role="line"
         id="tspan8760"
         x="45.061703"
         y="216.5406"
         style="stroke-width:0.26458332" /></text>
    <text
       xml:space="preserve"
       style="font-style:normal;font-variant:normal;font-weight:bold;font-stretch:normal;font-size:7.26496983px;line-height:1.25;font-family:sans-serif;-inkscape-font-specification:'sans-serif, Bold';font-variant-ligatures:normal;font-variant-caps:normal;font-variant-numeric:normal;font-feature-settings:normal;text-align:start;letter-spacing:0px;word-spacing:0px;writing-mode:lr-tb;text-anchor:start;fill:#000000;fill-opacity:1;stroke:none;stroke-width:0.23842306"
       x="67.074776"
       y="179.41026"
       id="icon.rms2"
       transform="scale(0.86986027,1.1496099)"
       inkscape:label="#text8766"><tspan
         sodipodi:role="line"
         id="tspan8764"
         x="67.074776"
         y="179.41026"
         style="font-style:normal;font-variant:normal;font-weight:bold;font-stretch:normal;font-size:7.26496983px;font-family:sans-serif;-inkscape-font-specification:'sans-serif, Bold';font-variant-ligatures:normal;font-variant-caps:normal;font-variant-numeric:normal;font-feature-settings:normal;text-align:start;writing-mode:lr-tb;text-anchor:start;stroke-width:0.23842306">RMS</tspan></text>
    <text
       xml:space="preserve"
       style="font-style:normal;font-weight:normal;font-size:7.2590909px;line-height:1.25;font-family:sans-serif;letter-spacing:0px;word-spacing:0px;fill:#000000;fill-opacity:1;stroke:none;stroke-width:0.18147726"
       x="46.353611"
       y="177.94536"
       id="icon.true"
       inkscape:label="#text8770"
       transform="scale(0.86261123,1.1592708)"><tspan
         sodipodi:role="line"
         id="tspan8768"
         x="46.353611"
         y="177.94536"
         style="stroke-width:0.18147726">TRUE</tspan></text>
    <text
       xml:space="preserve"
       style="font-style:normal;font-variant:normal;font-weight:bold;font-stretch:normal;font-size:8.03203487px;line-height:1.25;font-family:sans-serif;-inkscape-font-specification:'sans-serif, Bold';font-variant-ligatures:normal;font-variant-caps:normal;font-variant-numeric:normal;font-feature-settings:normal;text-align:start;letter-spacing:0px;word-spacing:0px;writing-mode:lr-tb;text-anchor:start;fill:#000000;fill-opacity:1;stroke:none;stroke-width:0.20080085"
       x="113.95777"
       y="183.79466"
       id="icon.manual"
       inkscape:label="#text8774"
       transform="scale(0.88902031,1.1248337)"><tspan
         sodipodi:role="line"
         id="tspan8772"
         x="113.95777"
         y="183.79466"
         style="font-style:normal;font-variant:normal;font-weight:bold;font-stretch:normal;font-size:8.03203487px;font-family:sans-serif;-inkscape-font-specification:'sans-serif, Bold';font-variant-ligatures:normal;font-variant-caps:normal;font-variant-numeric:normal;font-feature-settings:normal;text-align:start;writing-mode:lr-tb;text-anchor:start;stroke-width:0.20080085">MANUAL</tspan></text>
    <path
       style="clip-rule:evenodd;fill-rule:evenodd;stroke-width:0.41784844"
       d="m 151.94437,204.27315 c -0.0952,-0.45462 -0.50518,-0.55866 -0.87749,-0.4262 l -0.12539,0.0501 -0.10076,0.0752 -0.0752,0.12534 -0.0251,0.0501 -0.0498,0.12537 -0.0251,0.12534 v 2.43188 h -1.07846 v -2.40681 l -0.0251,-0.12536 -0.0251,-0.15042 -0.0251,-0.0752 -0.0749,-0.10029 -0.12539,-0.10028 -0.12539,-0.0501 -0.1254,-0.0251 h -0.0757 l -0.15034,0.0251 -0.12492,0.0251 -0.1254,0.0501 -0.12571,0.0752 -0.0748,0.10028 h -0.0254 l -0.0501,0.12535 -0.0251,0.15043 v 2.48201 h -1.07799 v -3.78571 h 1.0279 v 0.55156 l 0.0752,-0.10028 0.10029,-0.12535 0.0756,-0.10028 0.1254,-0.0752 v -0.0251 c 0.52106,-0.25949 0.53984,-0.19305 1.07806,-0.20057 l 0.12539,0.0251 0.15035,0.0501 0.12492,0.0501 0.0752,0.0501 0.20098,0.20057 0.0752,0.10028 0.0752,0.12535 v 0.0251 c 0.38651,-0.57498 1.00327,-0.72541 1.65427,-0.57666 0.25531,0.0272 0.64766,0.3535 0.75254,0.6017 l 0.0501,0.12535 0.0251,0.12535 0.0251,0.15042 0.0251,0.12535 v 2.68259 h -1.10311 z"
       id="unit.main.milli-4"
       inkscape:label=""
       inkscape:connector-curvature="0" />
  </g>
</svg>
